<svg xmlns="http://www.w3.org/2000/svg" id="Layer_1" data-name="Layer 1" viewBox="0 0 132.85 132.85"><defs><style>@media (prefers-color-scheme:dark){.cls-1{fill:#fff}}@media (prefers-color-scheme:light){.cls-1{fill:#000}}@media (prefers-color-scheme:no-preference){.cls-1{fill:#000}}</style></defs><title>logo</title><g id="Layer_1-2" data-name="Layer_1"><path d="M26.53,98.76a2.12,2.12,0,0,0,0-.34,3.55,3.55,0,0,0,.72.41l0,.12a6.34,6.34,0,0,1-.76-.61l0,0a6.43,6.43,0,0,0,1.36.84l0,.11A6.61,6.61,0,0,1,26.42,98a6.67,6.67,0,0,0-.08-.75,7.39,7.39,0,0,0,1.17.75l0,.08A5.37,5.37,0,0,1,26.31,97c-.08-.75-.19-1.66-.31-2.72a8.06,8.06,0,0,0,1.51,1l0,.12A6.18,6.18,0,0,1,26,93.84c-.07-.75-.18-1.55-.26-2.38a10.72,10.72,0,0,0,1.81,1.25l0,.08a7.08,7.08,0,0,1-1.89-1.89c-.07-.61-.11-1.18-.19-1.78a9.65,9.65,0,0,0,1.74,1.17l0,.08a6.48,6.48,0,0,1-1.81-1.74c-.08-.72-.12-1.4-.19-2.12A8.62,8.62,0,0,0,27.36,88l0,.12a7.19,7.19,0,0,1-2.19-2.35c0-.41,0-.79-.08-1.21a8.29,8.29,0,0,0,2.08,1.52l0,.07A7.23,7.23,0,0,1,25.1,83.9a4.71,4.71,0,0,1,0-.75c.07.07.15.11.22.19v-.12l-.22-.11C25,82.35,25,81.64,25,81a5.21,5.21,0,0,0,.57.3l0,.11L25,80.92v-.27a8.9,8.9,0,0,0,2.69,2.12l0,.11a7.13,7.13,0,0,1-2.34-2.6,7.91,7.91,0,0,0,1.85,1.28l0,.11A7.52,7.52,0,0,1,25,79.26a9.57,9.57,0,0,1,.11-1.52,8.15,8.15,0,0,0,.87.53l0,.08a5.53,5.53,0,0,1-.87-.68,1.07,1.07,0,0,1,.08-.38c.49-1.63,1.36-2.12,2.15-3.7a10.62,10.62,0,0,0,1.44-7.9c0-.72.07-1.55.07-2.42a11.24,11.24,0,0,0,.46-5.41,11.54,11.54,0,0,0,.75-4.46A9.12,9.12,0,0,1,34.81,48c.45-.15.83-.34,1.25-.46a9.76,9.76,0,0,1,5.74,1.25h.11a8.89,8.89,0,0,0-4.38-1.62,8.65,8.65,0,0,1,5.06.94,4.7,4.7,0,0,0,1.4.3,9.84,9.84,0,0,0,5.11.19,14.61,14.61,0,0,0,4.8-1.4,13.57,13.57,0,0,0,9-1.43h0l5.21-.76a9.31,9.31,0,0,1,3.55,2.08l.12,0a10,10,0,0,0-3-2.23l1-.12a10.12,10.12,0,0,1,5,2.46l.07,0a8.88,8.88,0,0,0-2.23-1.82,9.64,9.64,0,0,1,1-.49A9.52,9.52,0,0,1,77,47l.11,0a9.77,9.77,0,0,0-2.91-2.2c.3-.11.64-.22,1-.37,0,0,.08.07.11.07h.12a.14.14,0,0,1-.08,0,10.16,10.16,0,0,1,3.44,2.05l.08,0a8.68,8.68,0,0,0-3-2.23,8.53,8.53,0,0,1,.87,0,9.75,9.75,0,0,1,4.61,2.38l.12,0A8.79,8.79,0,0,0,78,44.3c1,0,1.89,0,2.83.11.27.07.57.19.87.3a9.54,9.54,0,0,1,1.63,1.21l.11,0a7.73,7.73,0,0,0-.83-.8,9.14,9.14,0,0,1,1.93,1.37l.07,0a9.58,9.58,0,0,0-2.64-2.08l.91.12c.34.15.68.34,1.05.53H84c-.23-.15-.45-.31-.72-.46.87.15,1.66.34,2.5.53A14.6,14.6,0,0,1,88.86,49l.18,0a17.07,17.07,0,0,0-2.15-3.48s.08,0,.15,0c.3.22.61.49.91.75l.11,0c-.23-.23-.41-.45-.64-.64a15.55,15.55,0,0,1,1.59.72,17.65,17.65,0,0,1,1.21,1.77l.18,0c-.26-.49-.49-1-.75-1.43,0,0,.07,0,.15,0a19.57,19.57,0,0,1,1.78,1.29,10.6,10.6,0,0,1,.49,2.42l.07,0a2.93,2.93,0,0,0,2.23,1.32l0,.08a4.16,4.16,0,0,0,1.1,1.13c0,.38,0,.72,0,1.1l.07,0c1.06,2,2.19,1.89,3.59,1.47A36.9,36.9,0,0,1,102.76,58a11.83,11.83,0,0,1,.42,1.13c.23,1.59.19,4.69.41,8.13.27,3.66.8,7.67,4.28,9.45.15.07.26.15.41.22A6.14,6.14,0,0,1,107,78.05l0-.08a7,7,0,0,0,1.43-.94,3,3,0,0,1,.91,1s-.08,0-.11,0v.08s.07,0,.15-.08a3.82,3.82,0,0,1,.26.72,11.5,11.5,0,0,1,.08,1.17,7.37,7.37,0,0,1-2.16,2.27l0-.11a8.91,8.91,0,0,0,2.08-1.48,1.5,1.5,0,0,0,0,.42A7.64,7.64,0,0,1,107.71,83l0-.11a8.13,8.13,0,0,0,1.63-1.09,7,7,0,0,1-1.14,1.36v-.12A5.18,5.18,0,0,0,109.49,82a12.75,12.75,0,0,1-.57,2.12,6.62,6.62,0,0,1-1.81,1.74l0-.08a7.83,7.83,0,0,0,1.47-1,6.79,6.79,0,0,1-1.74,2.42l0-.08a10,10,0,0,0,2.23-2.34.71.71,0,0,0,0,.27,7.89,7.89,0,0,1-1.62,2.15v-.08A9.47,9.47,0,0,0,109,85.79c0,.15,0,.27-.08.38a4.42,4.42,0,0,1-.9.76,5.6,5.6,0,0,0,.9-.57,16.46,16.46,0,0,0,0,1.85,6.27,6.27,0,0,0-.57-.38l-.19-.07a1.85,1.85,0,0,1,.61.68l-.57.45,0-.11a6.19,6.19,0,0,0,.56-.3l.12.22V89l-.57.46,0-.12a5.17,5.17,0,0,0,.53-.3v.42a5.68,5.68,0,0,1-1.33,1.17l0-.08a9.46,9.46,0,0,0,1.32-.83v.8a5.6,5.6,0,0,1-.83.79l0-.11a5.58,5.58,0,0,0,.79-.57v.57a7.34,7.34,0,0,1-2.26,2.45l0-.11A8.86,8.86,0,0,0,108.85,92v0c-.15,1.21-.38,3.13-.46,4.31A7.14,7.14,0,0,1,106.58,99l0-.08A8.75,8.75,0,0,0,108.47,97a7.21,7.21,0,0,0,2.87-2.5,7.18,7.18,0,0,1-1.13,1.89V96.3a9.21,9.21,0,0,0,2.27-3.36A10,10,0,0,0,113.69,91c1.73-1.78,3.1-5,2.53-7.64a7.12,7.12,0,0,0,.07-2c0-.15.08-.26.12-.38a7.78,7.78,0,0,1-.08,4.27l0,.08a10.36,10.36,0,0,0,.53-6.69c.23-1.06.45-2.27.68-3.51a8.29,8.29,0,0,1,.26,5.29l0,.11a10.76,10.76,0,0,0,.64-6.27,9.63,9.63,0,0,0,.16-4.61,9.53,9.53,0,0,0,.22-4,9.9,9.9,0,0,0,.64-5,9.68,9.68,0,0,0,0-6.31h0c-.15-8.81-2.83-14.74-5-18.1a1.49,1.49,0,0,1-.15-.31,14,14,0,0,0-3.1-3.59,13.3,13.3,0,0,0-3.1-3.7c-.42-.27-.83-.57-1.29-.87.53.64,1,1.28,1.51,1.93l-.07,0a8.6,8.6,0,0,0-1.93-2c-.45-.3-.87-.61-1.28-.87.71.87,1.4,1.74,2,2.61-.27-.15-.53-.31-.76-.46a25.83,25.83,0,0,0-4.19-3.13l0-.27a16.5,16.5,0,0,0-8.54-5.67,24.7,24.7,0,0,0-6.16-3.59,33.33,33.33,0,0,0-5.1-1.43,12.57,12.57,0,0,0-8.88-1,12.76,12.76,0,0,0-8.39-1.44,13.28,13.28,0,0,0-3.44.08c-.76,0-1.55.08-2.34.15l.11.11A27.42,27.42,0,0,0,48,15.8c-4,.64-9.71,2.57-15.91,7.59l.3.08a35.59,35.59,0,0,1,13-6.27h0A39.58,39.58,0,0,0,35.3,22.07l.23.12a41.39,41.39,0,0,0-6.62,4.38l.34.08a37.9,37.9,0,0,1,4.46-2.91c-.94.64-1.85,1.28-2.72,2a45.58,45.58,0,0,0-5.18,3l.34.11.16-.08a13.88,13.88,0,0,0-3,3.41,16.1,16.1,0,0,0-5.14,9.41l.23.26a16.92,16.92,0,0,0-2,5,14.84,14.84,0,0,0-2,5.6l.42.45a19.67,19.67,0,0,1,2.61-5.67c-.38,1.55-.72,3.1-.95,4.69a43.26,43.26,0,0,0-2.27,5.4l.34-.07c.57-1.44,1.14-2.76,1.78-4,0,.3-.08.64-.11.94a9.33,9.33,0,0,0-.76,2c-.49,1.09-.94,2.26-1.4,3.55l.34-.11c.27-.68.53-1.36.83-2a8.68,8.68,0,0,0,0,1.25c-.53,1.17-1,2.38-1.47,3.7l.34-.07c.38-1,.79-1.93,1.21-2.84v0a8.52,8.52,0,0,0-.34,1.78,39,39,0,0,0-1.7,6.12l.3-.15c.34-1.4.72-2.72,1.13-4a9.82,9.82,0,0,0-.07,1,43.1,43.1,0,0,0-1.82,6.43l.31-.15c.26-1.14.6-2.23.94-3.29h0c.19-.49.38-1,.57-1.44h0a42.32,42.32,0,0,0-1.25,4.88l.3-.15c.27-1.1.57-2.16.91-3.18a5.73,5.73,0,0,0,.07,1.36,9.34,9.34,0,0,0-.18,5.75,10.5,10.5,0,0,0,.68,6.27v-.11a8,8,0,0,1,0-4.35c.15,1.1.34,2.23.6,3.37,0,.15.08.34.12.49a11.25,11.25,0,0,0,.79,5.4l0-.07a8.34,8.34,0,0,1-.27-3.29c.31.87.61,1.7.91,2.46a12.54,12.54,0,0,0,.83,3.47l0-.11a7.44,7.44,0,0,1-.34-2.19c.23.45.45.9.68,1.32a12.13,12.13,0,0,0,.83,3.51l0-.07a7.77,7.77,0,0,1-.34-2.42c.53,1,1.06,1.81,1.59,2.72a11.49,11.49,0,0,0,.83,3.4v-.11a7.8,7.8,0,0,1-.31-2.38C23.7,96.23,25.62,98.87,26.53,98.76Zm9.83-77a32.93,32.93,0,0,1,4.46-2.27c-.8.42-1.55.83-2.31,1.29A17.06,17.06,0,0,0,36.36,21.77ZM18.78,41.12a21.71,21.71,0,0,1,2.65-5.25c-.19.53-.3,1-.42,1.4s-.37,1-.49,1.39a4.88,4.88,0,0,0-.26.5A14,14,0,0,0,18.78,41.12Zm-.41,2.68a1.78,1.78,0,0,1-.12.27.69.69,0,0,1-.15.23A5.13,5.13,0,0,1,18.37,43.8ZM55.1,14.66l-.07,0c-.3,0-.61,0-.91.08Zm64.14,39.08a3.23,3.23,0,0,0-.3-.49,26.17,26.17,0,0,0-.3-3.44c-.19-1.32-.42-2.57-.65-3.81A38.54,38.54,0,0,1,119.24,53.74ZM97.62,23a18.47,18.47,0,0,1,3.14,2l.49.23a21.08,21.08,0,0,0-4.8-3.18C96.87,22.37,97.25,22.71,97.62,23ZM70.56,13.83c-.56-.15-1.13-.3-1.74-.41.31.15.61.26.91.41Zm-6.42-.38h-.08c.57.16,1.1.31,1.63.5.34,0,.72,0,1.09,0A15,15,0,0,0,64.14,13.45Zm55.33,46.72a7.51,7.51,0,0,0-.64-1.89c0-.79.07-1.59.11-2.42A12,12,0,0,1,119.47,60.17Zm-.57,5.29a9.23,9.23,0,0,0-.45-1.59c0-.45,0-.94.07-1.4l.12-1.58A10.47,10.47,0,0,1,118.9,65.46Zm-.45,3.29a.53.53,0,0,1-.08-.23v-.11a1.11,1.11,0,0,1,0-.38C118.41,68.29,118.45,68.52,118.45,68.75ZM114.63,88c.15-.49.34-1,.45-1.55l0,0a7.26,7.26,0,0,1-.3,1.44l0,.11c.11-.3.19-.57.3-.83A8.9,8.9,0,0,1,113.69,91,8.71,8.71,0,0,0,114.63,88ZM72.72,45.47A8.07,8.07,0,0,0,71,44.71c.41-.07.83-.11,1.25-.15s.75.19,1.13.3a3.28,3.28,0,0,0-.64.42Zm1.06-.83c-.16,0-.31-.12-.46-.16.34,0,.64-.07,1-.07A5.06,5.06,0,0,0,73.78,44.64Zm19,4.8a15,15,0,0,1,.94,1.28v0h0c.11.15.19.3.3.45a1.81,1.81,0,0,1-1.09-.79C92.9,50.08,92.82,49.74,92.79,49.44ZM118,72.57l.11-.91a7.38,7.38,0,0,1,.23,1.85A4.21,4.21,0,0,0,118,72.57Zm-9.41,14c-.23.19-.46.38-.68.53l0-.11s.08,0,.12,0l0-.08C108.21,86.74,108.39,86.66,108.55,86.55ZM14.7,73.78a12.21,12.21,0,0,1,.15-1.59c0,.38,0,.72,0,1.06A3.35,3.35,0,0,0,14.7,73.78ZM29,58.62c0-.08.07-.15.11-.27A14.14,14.14,0,0,1,29,61.53V61A15.47,15.47,0,0,1,29,58.62Zm-.57,11.22c.07-.6.15-1.24.23-2C28.65,68.45,28.57,69.13,28.46,69.84Zm67.92-16.1c.6.46,1.32.95,2,1.4a1.65,1.65,0,0,1-2.08-1A1.33,1.33,0,0,0,96.38,53.74Z" class="cls-1"/><path d="M66.41,0A66.44,66.44,0,1,1,19.46,19.46,66.22,66.22,0,0,1,66.41,0Zm45.05,21.39a63.75,63.75,0,1,0,18.63,45A63.45,63.45,0,0,0,111.46,21.39Z" class="cls-1"/></g></svg>